<svg width="20" height="20" viewBox="0 0 36 36" fill="none" xmlns="http://www.w3.org/2000/svg">
<path d="M10.5854 3.62794L12.3359 3.10144C13.2948 2.81227 14.3262 2.88188 15.2376 3.29728C16.149 3.71267 16.8781 4.44547 17.2889 5.35894L18.6419 8.36794C18.9951 9.15364 19.0935 10.0302 18.9232 10.8746C18.7529 11.7191 18.3225 12.489 17.6924 13.0764L15.4499 15.1659C15.3844 15.227 15.3429 15.3095 15.3329 15.3984C15.2669 15.9939 15.6704 17.1534 16.6019 18.7659C17.2769 19.9374 17.8904 20.7609 18.4109 21.2214C18.7754 21.5439 18.9749 21.6129 19.0604 21.5889L22.0754 20.6664C22.8988 20.4146 23.7803 20.4267 24.5964 20.7011C25.4126 20.9755 26.1224 21.4983 26.6264 22.1964L28.5464 24.8604C29.1309 25.6704 29.4017 26.6649 29.3084 27.6594C29.2152 28.6539 28.7643 29.5807 28.0394 30.2679L26.7089 31.5279C26.0036 32.1959 25.1372 32.6698 24.1943 32.9035C23.2514 33.1372 22.2641 33.1227 21.3284 32.8614C17.1974 31.7079 13.4939 28.2219 10.1759 22.4754C6.85491 16.7214 5.68791 11.7654 6.76491 7.60594C7.00667 6.67044 7.48533 5.81299 8.15477 5.11623C8.8242 4.41948 9.66032 3.90691 10.5854 3.62794ZM11.2349 5.78344C10.6797 5.9504 10.1769 6.25755 9.77496 6.67528C9.37299 7.09302 9.0854 7.60726 8.93991 8.16844C8.03691 11.6664 9.07041 16.0599 12.1244 21.3504C15.1754 26.6334 18.4589 29.7234 21.9344 30.6954C22.4958 30.852 23.0882 30.8605 23.6539 30.7202C24.2196 30.5798 24.7393 30.2953 25.1624 29.8944L26.4914 28.6344C26.8211 28.3221 27.0263 27.9007 27.0688 27.4486C27.1112 26.9964 26.9882 26.5442 26.7224 26.1759L24.8024 23.5134C24.5733 23.1958 24.2505 22.9578 23.8792 22.833C23.5079 22.7081 23.1069 22.7027 22.7324 22.8174L19.7099 23.7429C17.9549 24.2649 16.3634 22.8534 14.6534 19.8909C13.4999 17.8959 12.9629 16.3509 13.0979 15.1494C13.1669 14.5254 13.4579 13.9494 13.9154 13.5204L16.1579 11.4309C16.4442 11.1638 16.6396 10.8137 16.7169 10.4298C16.7941 10.0459 16.7491 9.6475 16.5884 9.29044L15.2369 6.28144C15.0502 5.86622 14.7187 5.53314 14.3044 5.34435C13.8901 5.15555 13.4213 5.12395 12.9854 5.25544L11.2349 5.78344Z" fill="#1C2B5E"/>
</svg>
