<svg width="40" height="40" viewBox="0 0 56 57" fill="none" xmlns="http://www.w3.org/2000/svg">
<path fill-rule="evenodd" clip-rule="evenodd" d="M27.9997 8.57812C28.4638 8.57812 28.909 8.7625 29.2371 9.09069C29.5653 9.41888 29.7497 9.864 29.7497 10.3281V43.4381L40.763 32.4248C40.9233 32.2529 41.1164 32.115 41.3311 32.0193C41.5458 31.9237 41.7775 31.8722 42.0125 31.8681C42.2475 31.8639 42.4809 31.9072 42.6988 31.9952C42.9167 32.0832 43.1146 32.2142 43.2808 32.3804C43.447 32.5465 43.578 32.7445 43.666 32.9624C43.754 33.1803 43.7972 33.4137 43.7931 33.6487C43.7889 33.8837 43.7375 34.1154 43.6419 34.33C43.5462 34.5447 43.4083 34.7379 43.2364 34.8981L29.2364 48.8981C28.9082 49.2258 28.4635 49.4099 27.9997 49.4099C27.536 49.4099 27.0912 49.2258 26.763 48.8981L12.763 34.8981C12.5911 34.7379 12.4532 34.5447 12.3576 34.33C12.2619 34.1154 12.2105 33.8837 12.2063 33.6487C12.2022 33.4137 12.2454 33.1803 12.3334 32.9624C12.4214 32.7445 12.5524 32.5465 12.7186 32.3804C12.8848 32.2142 13.0827 32.0832 13.3006 31.9952C13.5186 31.9072 13.752 31.8639 13.9869 31.8681C14.2219 31.8722 14.4536 31.9237 14.6683 32.0193C14.883 32.115 15.0762 32.2529 15.2364 32.4248L26.2497 43.4381V10.3281C26.2497 9.864 26.4341 9.41888 26.7623 9.09069C27.0905 8.7625 27.5356 8.57813 27.9997 8.57812Z" fill="#A1CD3A"/>
</svg>
