<svg width="20" height="20" viewBox="0 0 36 36" fill="none" xmlns="http://www.w3.org/2000/svg">
<path d="M19.502 29.907C22.5279 29.522 25.2937 27.9992 27.2372 25.6482C29.1807 23.2971 30.156 20.2943 29.965 17.25C29.774 14.2056 28.431 11.3482 26.2088 9.25857C23.9867 7.16891 21.0523 6.00378 18.002 6C14.9479 5.99773 12.0079 7.16001 9.78096 9.25002C7.55405 11.34 6.20781 14.2005 6.01657 17.2486C5.82532 20.2966 6.80346 23.3029 8.75167 25.6549C10.6999 28.0069 13.4716 29.5275 16.502 29.907V21H13.502V18H16.502V15.519C16.502 13.5135 16.712 12.786 17.102 12.0525C17.486 11.3267 18.0798 10.7335 18.806 10.35C19.379 10.0425 20.0915 9.858 21.3365 9.7785C21.83 9.747 22.469 9.786 23.2535 9.8985V12.7485H22.5035C21.128 12.7485 20.5595 12.813 20.2205 12.9945C20.0182 13.0986 19.8536 13.2633 19.7495 13.4655C19.5695 13.8045 19.5035 14.1405 19.5035 15.5175V18H23.2535L22.5035 21H19.5035L19.502 29.907ZM18.002 33C9.71745 33 3.00195 26.2845 3.00195 18C3.00195 9.7155 9.71745 3 18.002 3C26.2865 3 33.002 9.7155 33.002 18C33.002 26.2845 26.2865 33 18.002 33Z" fill="#1C2B5E"/>
</svg>
