<svg width="20" height="20" viewBox="0 0 36 36" fill="none" xmlns="http://www.w3.org/2000/svg">
<path d="M18.002 13.5C16.8085 13.5 15.6639 13.9741 14.82 14.818C13.9761 15.6619 13.502 16.8065 13.502 18C13.502 19.1935 13.9761 20.3381 14.82 21.182C15.6639 22.0259 16.8085 22.5 18.002 22.5C19.1954 22.5 20.34 22.0259 21.1839 21.182C22.0278 20.3381 22.502 19.1935 22.502 18C22.502 16.8065 22.0278 15.6619 21.1839 14.818C20.34 13.9741 19.1954 13.5 18.002 13.5ZM18.002 10.5C19.9911 10.5 21.8987 11.2902 23.3053 12.6967C24.7118 14.1032 25.502 16.0109 25.502 18C25.502 19.9891 24.7118 21.8968 23.3053 23.3033C21.8987 24.7098 19.9911 25.5 18.002 25.5C16.0128 25.5 14.1052 24.7098 12.6987 23.3033C11.2921 21.8968 10.502 19.9891 10.502 18C10.502 16.0109 11.2921 14.1032 12.6987 12.6967C14.1052 11.2902 16.0128 10.5 18.002 10.5ZM27.752 10.125C27.752 10.6223 27.5544 11.0992 27.2028 11.4508C26.8511 11.8025 26.3742 12 25.877 12C25.3797 12 24.9028 11.8025 24.5511 11.4508C24.1995 11.0992 24.002 10.6223 24.002 10.125C24.002 9.62772 24.1995 9.15081 24.5511 8.79917C24.9028 8.44754 25.3797 8.25 25.877 8.25C26.3742 8.25 26.8511 8.44754 27.2028 8.79917C27.5544 9.15081 27.752 9.62772 27.752 10.125ZM18.002 6C14.291 6 13.685 6.0105 11.9585 6.087C10.7825 6.1425 9.99345 6.3 9.26145 6.585C8.64888 6.80991 8.09507 7.17039 7.64145 7.6395C7.17196 8.0931 6.81098 8.64688 6.58545 9.2595C6.30045 9.9945 6.14295 10.782 6.08895 11.9565C6.01095 13.6125 6.00045 14.1915 6.00045 18C6.00045 21.7125 6.01095 22.317 6.08745 24.0435C6.14295 25.218 6.30045 26.0085 6.58395 26.739C6.83895 27.3915 7.13895 27.861 7.63695 28.359C8.14245 28.863 8.61195 29.1645 9.25695 29.4135C9.99795 29.7 10.787 29.859 11.957 29.913C13.613 29.991 14.192 30 18.0005 30C21.713 30 22.3175 29.9895 24.044 29.913C25.217 29.8575 26.006 29.7 26.7395 29.4165C27.3515 29.1905 27.905 28.8302 28.3595 28.362C28.865 27.858 29.1665 27.3885 29.4155 26.742C29.7005 26.004 29.8595 25.215 29.9135 24.042C29.9915 22.3875 30.0005 21.807 30.0005 18C30.0005 14.289 29.99 13.683 29.9135 11.9565C29.858 10.7835 29.699 9.9915 29.4155 9.2595C29.1893 8.64753 28.829 8.09397 28.361 7.6395C27.9076 7.16977 27.3537 6.80875 26.741 6.5835C26.006 6.2985 25.217 6.141 24.044 6.087C22.3895 6.009 21.812 6 18.002 6ZM18.002 3C22.0775 3 22.586 3.015 24.1865 3.09C25.7825 3.165 26.8715 3.4155 27.827 3.7875C28.817 4.1685 29.651 4.6845 30.485 5.517C31.2477 6.26684 31.8379 7.17388 32.2145 8.175C32.585 9.1305 32.837 10.2195 32.912 11.817C32.9825 13.416 33.002 13.9245 33.002 18C33.002 22.0755 32.987 22.584 32.912 24.183C32.837 25.7805 32.585 26.868 32.2145 27.825C31.8389 28.8266 31.2486 29.7339 30.485 30.483C29.7349 31.2455 28.8279 31.8356 27.827 32.2125C26.8715 32.583 25.7825 32.835 24.1865 32.91C22.586 32.9805 22.0775 33 18.002 33C13.9265 33 13.418 32.985 11.8175 32.91C10.2215 32.835 9.13395 32.583 8.17695 32.2125C7.17544 31.8367 6.26824 31.2464 5.51895 30.483C4.7561 29.7332 4.16589 28.8262 3.78945 27.825C3.41745 26.8695 3.16695 25.7805 3.09195 24.183C3.01995 22.584 3.00195 22.0755 3.00195 18C3.00195 13.9245 3.01695 13.416 3.09195 11.817C3.16695 10.218 3.41745 9.132 3.78945 8.175C4.16481 7.17327 4.75516 6.26598 5.51895 5.517C6.26846 4.75385 7.1756 4.16359 8.17695 3.7875C9.13245 3.4155 10.22 3.165 11.8175 3.09C13.418 3.0195 13.9265 3 18.002 3Z" fill="#1C2B5E"/>
</svg>
