<svg width="20" height="20" viewBox="0 0 36 36" fill="none" xmlns="http://www.w3.org/2000/svg">
<path d="M25.5 19.6947V25.2402H22.2855V20.0653C22.2855 18.7663 21.8205 17.8798 20.6565 17.8798C19.7685 17.8798 19.239 18.4768 19.0065 19.0558C18.9225 19.2628 18.9 19.5507 18.9 19.8387V25.2402H15.684C15.684 25.2402 15.7275 16.4773 15.684 15.5698H18.9V16.9393L18.879 16.9708H18.9V16.9393C19.3275 16.2793 20.0895 15.3417 21.798 15.3417C23.913 15.3417 25.5 16.7248 25.5 19.6947ZM12.3195 10.9062C11.22 10.9062 10.5 11.6293 10.5 12.5773C10.5 13.5073 11.199 14.2498 12.2775 14.2498H12.2985C13.4205 14.2498 14.118 13.5058 14.118 12.5773C14.097 11.6293 13.4205 10.9062 12.3195 10.9062ZM10.6905 25.2402H13.9065V15.5698H10.6905V25.2402Z" fill="#1C2B5E"/>
<path d="M9 6C8.20435 6 7.44129 6.31607 6.87868 6.87868C6.31607 7.44129 6 8.20435 6 9V27C6 27.7956 6.31607 28.5587 6.87868 29.1213C7.44129 29.6839 8.20435 30 9 30H27C27.7956 30 28.5587 29.6839 29.1213 29.1213C29.6839 28.5587 30 27.7956 30 27V9C30 8.20435 29.6839 7.44129 29.1213 6.87868C28.5587 6.31607 27.7956 6 27 6H9ZM9 3H27C28.5913 3 30.1174 3.63214 31.2426 4.75736C32.3679 5.88258 33 7.4087 33 9V27C33 28.5913 32.3679 30.1174 31.2426 31.2426C30.1174 32.3679 28.5913 33 27 33H9C7.4087 33 5.88258 32.3679 4.75736 31.2426C3.63214 30.1174 3 28.5913 3 27V9C3 7.4087 3.63214 5.88258 4.75736 4.75736C5.88258 3.63214 7.4087 3 9 3Z" fill="#1C2B5E"/>
</svg>
