<svg width="24" height="24" viewBox="0 0 24 24" fill="none" xmlns="http://www.w3.org/2000/svg">
<path opacity="0.6" d="M12.0022 11.75C12.4841 11.75 12.8958 11.5784 13.2375 11.2353C13.5792 10.8921 13.75 10.4796 13.75 9.99778C13.75 9.51593 13.5784 9.10417 13.2353 8.7625C12.8921 8.42083 12.4796 8.25 11.9978 8.25C11.5159 8.25 11.1042 8.42158 10.7625 8.76472C10.4208 9.10786 10.25 9.52036 10.25 10.0022C10.25 10.4841 10.4216 10.8958 10.7647 11.2375C11.1079 11.5792 11.5204 11.75 12.0022 11.75ZM12 20.025C14.2167 18.0083 15.8542 16.1792 16.9125 14.5375C17.9708 12.8958 18.5 11.45 18.5 10.2C18.5 8.23683 17.8726 6.62938 16.6177 5.37763C15.3629 4.12588 13.8236 3.5 12 3.5C10.1764 3.5 8.63715 4.12588 7.3823 5.37763C6.12743 6.62938 5.5 8.23683 5.5 10.2C5.5 11.45 6.04167 12.8958 7.125 14.5375C8.20833 16.1792 9.83333 18.0083 12 20.025ZM12.0125 21.7C11.9042 21.7 11.8 21.6833 11.7 21.65C11.6 21.6167 11.5083 21.5667 11.425 21.5C8.94167 19.3167 7.08333 17.2926 5.85 15.4277C4.61667 13.5627 4 11.8202 4 10.2C4 7.7 4.80417 5.70833 6.4125 4.225C8.02083 2.74167 9.88333 2 12 2C14.1167 2 15.9792 2.74167 17.5875 4.225C19.1958 5.70833 20 7.7 20 10.2C20 11.8167 19.3833 13.5583 18.15 15.425C16.9167 17.2917 15.0583 19.3167 12.575 21.5C12.4917 21.5667 12.4042 21.6167 12.3125 21.65C12.2208 21.6833 12.1208 21.7 12.0125 21.7Z" fill="black"/>
</svg>
