<svg width="48" height="48" viewBox="0 0 48 48" fill="none" xmlns="http://www.w3.org/2000/svg">
<g clip-path="url(#clip0_155_1926)">
<path d="M37.5 30C35.4233 30 33.3932 29.3842 31.6665 28.2304C29.9398 27.0767 28.594 25.4368 27.7993 23.5182C27.0045 21.5996 26.7966 19.4884 27.2018 17.4516C27.6069 15.4148 28.6069 13.5438 30.0754 12.0754C31.5438 10.6069 33.4148 9.6069 35.4516 9.20176C37.4884 8.79661 39.5996 9.00455 41.5182 9.79927C43.4368 10.594 45.0767 11.9398 46.2304 13.6665C47.3842 15.3932 48 17.4233 48 19.5L48.048 21C48.048 23.7578 47.5048 26.4885 46.4495 29.0364C45.3941 31.5842 43.8473 33.8992 41.8972 35.8492C39.9472 37.7993 37.6322 39.3461 35.0844 40.4015C32.5365 41.4568 29.8058 42 27.048 42V36C29.0187 36.0053 30.9709 35.6199 32.7917 34.866C34.6125 34.1121 36.2658 33.0048 37.656 31.608C38.1963 31.0687 38.6948 30.489 39.147 29.874C38.6022 29.9596 38.0515 30.0028 37.5 30.003V30ZM10.5 30C8.4233 30 6.39323 29.3842 4.66652 28.2304C2.9398 27.0767 1.59399 25.4368 0.79927 23.5182C0.00454956 21.5996 -0.203386 19.4884 0.201759 17.4516C0.606904 15.4148 1.60693 13.5438 3.07538 12.0754C4.54383 10.6069 6.41476 9.6069 8.45156 9.20176C10.4884 8.79661 12.5996 9.00455 14.5182 9.79927C16.4368 10.594 18.0767 11.9398 19.2304 13.6665C20.3842 15.3932 21 17.4233 21 19.5L21.048 21C21.048 26.5696 18.8355 31.911 14.8972 35.8492C10.959 39.7875 5.61755 42 0.0480047 42V36C2.0187 36.0053 3.97089 35.6199 5.7917 34.866C7.61251 34.1121 9.26582 33.0048 10.656 31.608C11.1963 31.0687 11.6948 30.489 12.147 29.874C11.6022 29.9596 11.0515 30.0028 10.5 30.003V30Z" fill="#8FC513"/>
</g>
<defs>
<clipPath id="clip0_155_1926">
<rect width="48" height="48" fill="white"/>
</clipPath>
</defs>
</svg>
