<svg width="48" height="48" viewBox="0 0 48 48" fill="none" xmlns="http://www.w3.org/2000/svg">
<g clip-path="url(#clip0_155_1923)">
<path d="M10.548 21C12.6247 21 14.6548 21.6158 16.3815 22.7696C18.1082 23.9233 19.454 25.5632 20.2487 27.4818C21.0435 29.4004 21.2514 31.5117 20.8462 33.5485C20.4411 35.5853 19.4411 37.4562 17.9726 38.9246C16.5042 40.3931 14.6332 41.3931 12.5964 41.7982C10.5596 42.2034 8.44845 41.9955 6.52982 41.2007C4.6112 40.406 2.97132 39.0602 1.81757 37.3335C0.663814 35.6068 0.048 33.5767 0.048 31.5L0 30C0 24.4305 2.21249 19.089 6.15076 15.1508C10.089 11.2125 15.4305 9 21 9V15C19.0293 14.9947 17.0771 15.3801 15.2563 16.134C13.4355 16.8879 11.7822 17.9952 10.392 19.392C9.85168 19.9313 9.35324 20.511 8.901 21.126C9.438 21.042 9.987 20.997 10.545 20.997L10.548 21ZM37.548 21C39.6247 21 41.6548 21.6158 43.3815 22.7696C45.1082 23.9233 46.454 25.5632 47.2487 27.4818C48.0435 29.4004 48.2514 31.5117 47.8462 33.5485C47.4411 35.5853 46.4411 37.4562 44.9726 38.9246C43.5042 40.3931 41.6333 41.3931 39.5965 41.7982C37.5596 42.2034 35.4484 41.9955 33.5298 41.2007C31.6112 40.406 29.9713 39.0602 28.8176 37.3335C27.6638 35.6068 27.048 33.5767 27.048 31.5L27 30C27 24.4305 29.2125 19.089 33.1508 15.1508C37.089 11.2125 42.4305 9 48 9V15C46.0293 14.9947 44.0771 15.3801 42.2563 16.134C40.4355 16.8879 38.7822 17.9952 37.392 19.392C36.8517 19.9313 36.3532 20.511 35.901 21.126C36.438 21.042 36.987 21 37.548 21Z" fill="#8FC513"/>
</g>
<defs>
<clipPath id="clip0_155_1923">
<rect width="48" height="48" fill="white"/>
</clipPath>
</defs>
</svg>
