<svg width="20" height="20" viewBox="0 0 28 28" fill="none" xmlns="http://www.w3.org/2000/svg">
<path d="M19.833 10.5078C22.3705 10.5218 23.7448 10.635 24.6408 11.531C25.6663 12.5565 25.6663 14.2061 25.6663 17.5055V18.6721C25.6663 21.9726 25.6663 23.6223 24.6408 24.6478C23.6165 25.6721 21.9657 25.6721 18.6663 25.6721H9.33301C6.03367 25.6721 4.38284 25.6721 3.35851 24.6478C2.33301 23.6211 2.33301 21.9726 2.33301 18.6721V17.5055C2.33301 14.2061 2.33301 12.5565 3.35851 11.531C4.25451 10.635 5.62884 10.5218 8.16634 10.5078" stroke="white" stroke-width="2.5" stroke-linecap="round"/>
<path d="M14 17.5026V2.33594M14 2.33594L17.5 6.41927M14 2.33594L10.5 6.41927" stroke="white" stroke-width="2.5" stroke-linecap="round" stroke-linejoin="round"/>
</svg>
