<svg width="645" height="848" viewBox="0 0 645 848" fill="none" xmlns="http://www.w3.org/2000/svg">
<g opacity="0.5">
<path opacity="0.2" d="M29.9161 336.855L584.499 139.545C613.913 129.08 644.785 151.015 644.582 182.235L641.927 589.774C641.804 608.668 629.891 625.472 612.104 631.844L60.1763 829.566C30.863 840.067 0 818.339 0 787.202V379.252C0 360.214 11.9799 343.236 29.9161 336.855Z" fill="url(#paint0_linear_13_871)"/>
<path opacity="0.2" d="M29.9161 290.785L584.499 93.4745C613.913 83.0096 644.785 104.945 644.582 136.164L641.927 543.704C641.804 562.597 629.891 579.402 612.104 585.774L60.1763 783.495C30.863 793.996 0 772.269 0 741.132V333.181C0 314.144 11.9799 297.166 29.9161 290.785Z" fill="url(#paint1_linear_13_871)"/>
<path d="M29.9161 264.734L584.499 67.4237C613.913 56.9588 644.785 78.8941 644.582 110.113L641.927 517.653C641.804 536.547 629.891 553.351 612.104 559.723L60.1763 757.445C30.863 767.946 0 746.218 0 715.081V307.131C0 288.093 11.9799 271.115 29.9161 264.734Z" fill="url(#paint2_linear_13_871)"/>
<path d="M29.9161 218.835L584.499 21.5252C613.913 11.0603 644.785 32.9957 644.582 64.215L641.927 471.754C641.804 490.648 629.891 507.453 612.104 513.825L60.1763 711.546C30.863 722.047 0 700.32 0 669.183V261.232C0 242.195 11.9799 225.217 29.9161 218.835Z" fill="url(#paint3_linear_13_871)"/>
</g>
<defs>
<linearGradient id="paint0_linear_13_871" x1="28.2751" y1="804.408" x2="645" y2="118.02" gradientUnits="userSpaceOnUse">
<stop offset="0.0260417" stop-color="#1C2B5E" stop-opacity="0.63"/>
<stop offset="1" stop-color="white" stop-opacity="0"/>
</linearGradient>
<linearGradient id="paint1_linear_13_871" x1="28.2751" y1="758.337" x2="645" y2="71.9493" gradientUnits="userSpaceOnUse">
<stop offset="0.0260417" stop-color="#A1CD3A" stop-opacity="0.94"/>
<stop offset="1" stop-color="white" stop-opacity="0"/>
</linearGradient>
<linearGradient id="paint2_linear_13_871" x1="28.2751" y1="732.287" x2="645" y2="45.8985" gradientUnits="userSpaceOnUse">
<stop offset="0.0260417" stop-color="#1C2B5E" stop-opacity="0.63"/>
<stop offset="1" stop-color="white" stop-opacity="0"/>
</linearGradient>
<linearGradient id="paint3_linear_13_871" x1="28.2751" y1="686.388" x2="645" y2="4.12598e-05" gradientUnits="userSpaceOnUse">
<stop offset="0.0260417" stop-color="#A1CD3A" stop-opacity="0.94"/>
<stop offset="1" stop-color="white" stop-opacity="0"/>
</linearGradient>
</defs>
</svg>
